Comme-Medium.ufo
<glyph name="asterisk" format="1">
  <advance width="967"/>
  <unicode hex="002A"/>
  <outline>
    <contour>
      <point x="307" y="566" type="line"/>
      <point x="483" y="902" type="line"/>
      <point x="670" y="565" type="line"/>
      <point x="711" y="591"/>
      <point x="785" y="635"/>
      <point x="825" y="661" type="curve"/>
      <point x="759" y="746"/>
      <point x="627" y="921"/>
      <point x="587" y="973" type="curve"/>
      <point x="933" y="1051" type="line"/>
      <point x="883" y="1227" type="line"/>
      <point x="544" y="1085" type="line"/>
      <point x="579" y="1474" type="line"/>
      <point x="394" y="1474" type="line"/>
      <point x="428" y="1085" type="line"/>
      <point x="92" y="1227" type="line"/>
      <point x="41" y="1051" type="line"/>
      <point x="383" y="973" type="line"/>
      <point x="150" y="661" type="line"/>
    </contour>
  </outline>
</glyph>
<glyph name="hyphen" format="1">
  <advance width="882"/>
  <unicode hex="002D"/>
  <outline>
    <contour>
      <point x="166" y="504" type="line"/>
      <point x="710" y="504" type="line"/>
      <point x="710" y="662" type="line"/>
      <point x="166" y="662" type="line"/>
    </contour>
  </outline>
</glyph>
<glyph name="period" format="1">
  <advance width="654"/>
  <unicode hex="002E"/>
  <outline>
    <contour>
      <point x="328" y="-10" type="curve" smooth="yes"/>
      <point x="405" y="-10"/>
      <point x="447" y="36"/>
      <point x="447" y="121" type="curve" smooth="yes"/>
      <point x="447" y="205"/>
      <point x="405" y="250"/>
      <point x="328" y="250" type="curve" smooth="yes"/>
      <point x="249" y="250"/>
      <point x="207" y="205"/>
      <point x="207" y="121" type="curve" smooth="yes"/>
      <point x="207" y="35"/>
      <point x="249" y="-10"/>
    </contour>
  </outline>
</glyph>
<glyph name="four" format="1">
  <advance width="1284"/>
  <unicode hex="0034"/>
  <outline>
    <contour>
      <point x="327" y="525" type="line"/>
      <point x="761" y="1210" type="line"/>
      <point x="761" y="525" type="line"/>
    </contour>
    <contour>
      <point x="762" y="0" type="line"/>
      <point x="984" y="0" type="line"/>
      <point x="984" y="363" type="line"/>
      <point x="1153" y="363" type="line"/>
      <point x="1166" y="527" type="line"/>
      <point x="984" y="527" type="line"/>
      <point x="984" y="1456" type="line"/>
      <point x="736" y="1456" type="line"/>
      <point x="126" y="523" type="line"/>
      <point x="167" y="363" type="line"/>
      <point x="762" y="363" type="line"/>
    </contour>
  </outline>
</glyph>
<glyph name="five" format="1">
  <advance width="1284"/>
  <unicode hex="0035"/>
  <outline>
    <contour>
      <point x="669" y="783" type="curve" smooth="yes"/>
      <point x="839" y="783"/>
      <point x="930" y="633"/>
      <point x="930" y="476" type="curve" smooth="yes"/>
      <point x="930" y="308"/>
      <point x="834" y="158"/>
      <point x="631" y="158" type="curve" smooth="yes"/>
      <point x="493" y="158"/>
      <point x="389" y="210"/>
      <point x="313" y="319" type="curve"/>
      <point x="297" y="319" type="line"/>
      <point x="178" y="200" type="line"/>
      <point x="247" y="88"/>
      <point x="407" y="-20"/>
      <point x="640" y="-20" type="curve" smooth="yes"/>
      <point x="983" y="-20"/>
      <point x="1151" y="223"/>
      <point x="1151" y="475" type="curve" smooth="yes"/>
      <point x="1151" y="707"/>
      <point x="1004" y="941"/>
      <point x="705" y="941" type="curve" smooth="yes"/>
      <point x="595" y="941"/>
      <point x="513" y="906"/>
      <point x="446" y="846" type="curve"/>
      <point x="492" y="1292" type="line"/>
      <point x="1044" y="1292" type="line"/>
      <point x="1066" y="1456" type="line"/>
      <point x="299" y="1456" type="line"/>
      <point x="249" y="686" type="line"/>
      <point x="420" y="658" type="line"/>
      <point x="474" y="740"/>
      <point x="563" y="783"/>
    </contour>
  </outline>
</glyph>
<glyph name="less" format="1">
  <advance width="1107"/>
  <unicode hex="003C"/>
  <outline>
    <contour>
      <point x="1008" y="149" type="line"/>
      <point x="1008" y="324" type="line"/>
      <point x="300" y="664" type="line"/>
      <point x="1008" y="1031" type="line"/>
      <point x="1008" y="1202" type="line"/>
      <point x="73" y="711" type="line"/>
      <point x="73" y="608" type="line"/>
    </contour>
  </outline>
</glyph>
<glyph name="O" format="1">
  <advance width="1628"/>
  <unicode hex="004F"/>
  <outline>
    <contour>
      <point x="815" y="1456" type="move" name="top"/>
    </contour>
    <contour>
      <point x="1241" y="721" type="curve" smooth="yes"/>
      <point x="1241" y="380"/>
      <point x="1125" y="157"/>
      <point x="816" y="157" type="curve" smooth="yes"/>
      <point x="506" y="157"/>
      <point x="388" y="380"/>
      <point x="388" y="721" type="curve" smooth="yes"/>
      <point x="388" y="1073"/>
      <point x="515" y="1299"/>
      <point x="817" y="1299" type="curve" smooth="yes"/>
      <point x="1120" y="1299"/>
      <point x="1241" y="1071"/>
    </contour>
    <contour>
      <point x="148" y="722" type="curve" smooth="yes"/>
      <point x="148" y="263"/>
      <point x="367" y="-21"/>
      <point x="817" y="-21" type="curve" smooth="yes"/>
      <point x="1263" y="-21"/>
      <point x="1480" y="267"/>
      <point x="1480" y="720" type="curve" smooth="yes"/>
      <point x="1480" y="1186"/>
      <point x="1254" y="1476"/>
      <point x="817" y="1476" type="curve" smooth="yes"/>
      <point x="375" y="1476"/>
      <point x="148" y="1188"/>
    </contour>
  </outline>
</glyph>
<glyph name="U" format="1">
  <advance width="1470"/>
  <unicode hex="0055"/>
  <outline>
    <contour>
      <point x="734" y="1" type="move" name="bot"/>
    </contour>
    <contour>
      <point x="742" y="1456" type="move" name="top"/>
    </contour>
    <contour>
      <point x="1069" y="1457" type="line"/>
      <point x="1069" y="549" type="line" smooth="yes"/>
      <point x="1069" y="290"/>
      <point x="967" y="158"/>
      <point x="732" y="158" type="curve" smooth="yes"/>
      <point x="492" y="158"/>
      <point x="396" y="290"/>
      <point x="396" y="549" type="curve" smooth="yes"/>
      <point x="396" y="1457" type="line"/>
      <point x="165" y="1457" type="line"/>
      <point x="165" y="540" type="line" smooth="yes"/>
      <point x="165" y="204"/>
      <point x="339" y="-20"/>
      <point x="732" y="-20" type="curve" smooth="yes"/>
      <point x="1122" y="-20"/>
      <point x="1301" y="209"/>
      <point x="1301" y="538" type="curve" smooth="yes"/>
      <point x="1301" y="1457" type="line"/>
    </contour>
  </outline>
</glyph>
<glyph name="asciicircum" format="1">
  <advance width="1337"/>
  <unicode hex="005E"/>
  <outline>
    <contour>
      <point x="616" y="1456" type="line"/>
      <point x="95" y="292" type="line"/>
      <point x="309" y="292" type="line"/>
      <point x="667" y="1120" type="line"/>
      <point x="1027" y="292" type="line"/>
      <point x="1242" y="292" type="line"/>
      <point x="713" y="1456" type="line"/>
    </contour>
  </outline>
</glyph>
<glyph name="b" format="1">
  <advance width="1222"/>
  <unicode hex="0062"/>
  <outline>
    <contour>
      <point x="683" y="1082" type="move" name="top"/>
    </contour>
    <contour>
      <point x="633" y="134" type="curve" smooth="yes"/>
      <point x="518" y="134"/>
      <point x="428" y="176"/>
      <point x="368" y="258" type="curve"/>
      <point x="368" y="560" type="line" smooth="yes"/>
      <point x="368" y="809"/>
      <point x="460" y="951"/>
      <point x="651" y="951" type="curve" smooth="yes"/>
      <point x="831" y="951"/>
      <point x="895" y="795"/>
      <point x="895" y="543" type="curve" smooth="yes"/>
      <point x="895" y="283"/>
      <point x="810" y="134"/>
    </contour>
    <contour>
      <point x="689" y="1105" type="curve" smooth="yes"/>
      <point x="554" y="1105"/>
      <point x="432" y="1047"/>
      <point x="365" y="888" type="curve"/>
      <point x="373" y="1117" type="line"/>
      <point x="373" y="1560" type="line"/>
      <point x="157" y="1540" type="line"/>
      <point x="157" y="0" type="line"/>
      <point x="339" y="0" type="line"/>
      <point x="350" y="120" type="line"/>
      <point x="411" y="43"/>
      <point x="514" y="-20"/>
      <point x="659" y="-20" type="curve" smooth="yes"/>
      <point x="954" y="-20"/>
      <point x="1116" y="207"/>
      <point x="1116" y="544" type="curve" smooth="yes"/>
      <point x="1116" y="869"/>
      <point x="982" y="1105"/>
    </contour>
  </outline>
</glyph>
<glyph name="k" format="1">
  <advance width="1122"/>
  <unicode hex="006B"/>
  <outline>
    <contour>
      <point x="609" y="0" type="move" name="bot"/>
    </contour>
    <contour>
      <point x="161" y="0" type="line"/>
      <point x="379" y="0" type="line"/>
      <point x="379" y="404" type="line"/>
      <point x="485" y="498" type="line"/>
      <point x="873" y="0" type="line"/>
      <point x="1101" y="0" type="line"/>
      <point x="1101" y="26" type="line"/>
      <point x="643" y="596" type="line"/>
      <point x="1073" y="1060" type="line"/>
      <point x="1073" y="1082" type="line"/>
      <point x="833" y="1082" type="line"/>
      <point x="373" y="581" type="line"/>
      <point x="379" y="780" type="line"/>
      <point x="379" y="1560" type="line"/>
      <point x="161" y="1540" type="line"/>
    </contour>
  </outline>
</glyph>
<glyph name="o" format="1">
  <advance width="1215"/>
  <unicode hex="006F"/>
  <outline>
    <contour>
      <point x="608" y="1082" type="move" name="top"/>
    </contour>
    <contour>
      <point x="608" y="-21" type="curve" smooth="yes"/>
      <point x="927" y="-21"/>
      <point x="1109" y="207"/>
      <point x="1109" y="543" type="curve" smooth="yes"/>
      <point x="1109" y="883"/>
      <point x="929" y="1105"/>
      <point x="608" y="1105" type="curve" smooth="yes"/>
      <point x="286" y="1105"/>
      <point x="106" y="883"/>
      <point x="106" y="543" type="curve" smooth="yes"/>
      <point x="106" y="207"/>
      <point x="288" y="-21"/>
    </contour>
    <contour>
      <point x="608" y="134" type="curve" smooth="yes"/>
      <point x="414" y="134"/>
      <point x="328" y="297"/>
      <point x="328" y="542" type="curve" smooth="yes"/>
      <point x="328" y="790"/>
      <point x="415" y="951"/>
      <point x="608" y="951" type="curve" smooth="yes"/>
      <point x="800" y="951"/>
      <point x="887" y="790"/>
      <point x="887" y="542" type="curve" smooth="yes"/>
      <point x="887" y="298"/>
      <point x="800" y="134"/>
    </contour>
  </outline>
</glyph>
<glyph name="s" format="1">
  <advance width="983"/>
  <unicode hex="0073"/>
  <outline>
    <contour>
      <point x="485" y="1" type="move" name="bot"/>
    </contour>
    <contour>
      <point x="502" y="1083" type="move" name="top"/>
    </contour>
    <contour>
      <point x="704" y="306" type="curve" smooth="yes"/>
      <point x="704" y="191"/>
      <point x="636" y="132"/>
      <point x="510" y="132" type="curve" smooth="yes"/>
      <point x="413" y="132"/>
      <point x="293" y="161"/>
      <point x="205" y="264" type="curve"/>
      <point x="188" y="264" type="line"/>
      <point x="79" y="160" type="line"/>
      <point x="173" y="40"/>
      <point x="331" y="-20"/>
      <point x="513" y="-20" type="curve" smooth="yes"/>
      <point x="728" y="-20"/>
      <point x="905" y="81"/>
      <point x="905" y="314" type="curve" smooth="yes"/>
      <point x="905" y="436"/>
      <point x="869" y="536"/>
      <point x="616" y="623" type="curve" smooth="yes"/>
      <point x="490" y="666" type="line"/>
      <point x="355" y="711"/>
      <point x="330" y="746"/>
      <point x="330" y="810" type="curve" smooth="yes"/>
      <point x="330" y="895"/>
      <point x="388" y="948"/>
      <point x="521" y="948" type="curve" smooth="yes"/>
      <point x="627" y="948"/>
      <point x="713" y="908"/>
      <point x="764" y="846" type="curve"/>
      <point x="775" y="846" type="line"/>
      <point x="885" y="940" type="line"/>
      <point x="817" y="1042"/>
      <point x="686" y="1105"/>
      <point x="510" y="1105" type="curve" smooth="yes"/>
      <point x="264" y="1105"/>
      <point x="112" y="992"/>
      <point x="112" y="806" type="curve" smooth="yes"/>
      <point x="112" y="671"/>
      <point x="160" y="582"/>
      <point x="407" y="501" type="curve"/>
      <point x="527" y="463" type="line" smooth="yes"/>
      <point x="680" y="414"/>
      <point x="704" y="369"/>
    </contour>
  </outline>
</glyph>
<glyph name="braceleft" format="1">
  <advance width="882"/>
  <unicode hex="007B"/>
  <outline>
    <contour>
      <point x="753" y="-273" type="curve"/>
      <point x="753" y="-133" type="line"/>
      <point x="608" y="-132"/>
      <point x="589" y="-107"/>
      <point x="589" y="82" type="curve" smooth="yes"/>
      <point x="589" y="343" type="line" smooth="yes"/>
      <point x="589" y="502"/>
      <point x="551" y="588"/>
      <point x="390" y="617" type="curve"/>
      <point x="551" y="646"/>
      <point x="589" y="732"/>
      <point x="589" y="891" type="curve" smooth="yes"/>
      <point x="589" y="1154" type="line" smooth="yes"/>
      <point x="589" y="1343"/>
      <point x="608" y="1368"/>
      <point x="753" y="1369" type="curve"/>
      <point x="753" y="1509" type="line"/>
      <point x="479" y="1509"/>
      <point x="395" y="1463"/>
      <point x="395" y="1184" type="curve" smooth="yes"/>
      <point x="395" y="963" type="line" smooth="yes"/>
      <point x="395" y="770"/>
      <point x="391" y="698"/>
      <point x="191" y="698" type="curve"/>
      <point x="191" y="537" type="line"/>
      <point x="393" y="537"/>
      <point x="395" y="464"/>
      <point x="395" y="272" type="curve" smooth="yes"/>
      <point x="395" y="52" type="line" smooth="yes"/>
      <point x="395" y="-228"/>
      <point x="479" y="-273"/>
    </contour>
  </outline>
</glyph>
<glyph name="copyright" format="1">
  <advance width="1728"/>
  <unicode hex="00A9"/>
  <outline>
    <contour>
      <point x="790" y="-30" type="curve" smooth="yes"/>
      <point x="1186" y="-30"/>
      <point x="1561" y="250"/>
      <point x="1561" y="728" type="curve" smooth="yes"/>
      <point x="1561" y="1207"/>
      <point x="1185" y="1486"/>
      <point x="790" y="1486" type="curve" smooth="yes"/>
      <point x="397" y="1486"/>
      <point x="29" y="1207"/>
      <point x="29" y="728" type="curve" smooth="yes"/>
      <point x="29" y="250"/>
      <point x="397" y="-30"/>
    </contour>
    <contour>
      <point x="790" y="75" type="curve" smooth="yes"/>
      <point x="455" y="75"/>
      <point x="147" y="317"/>
      <point x="147" y="728" type="curve" smooth="yes"/>
      <point x="147" y="1138"/>
      <point x="455" y="1379"/>
      <point x="790" y="1379" type="curve" smooth="yes"/>
      <point x="1126" y="1379"/>
      <point x="1437" y="1138"/>
      <point x="1437" y="728" type="curve" smooth="yes"/>
      <point x="1437" y="318"/>
      <point x="1126" y="75"/>
    </contour>
    <contour>
      <point x="810" y="239" type="curve" smooth="yes"/>
      <point x="910" y="239"/>
      <point x="1008" y="266"/>
      <point x="1094" y="320" type="curve"/>
      <point x="1056" y="416" type="line"/>
      <point x="973" y="366"/>
      <point x="895" y="348"/>
      <point x="817" y="348" type="curve" smooth="yes"/>
      <point x="626" y="348"/>
      <point x="474" y="490"/>
      <point x="474" y="732" type="curve" smooth="yes"/>
      <point x="474" y="960"/>
      <point x="625" y="1108"/>
      <point x="811" y="1108" type="curve" smooth="yes"/>
      <point x="883" y="1108"/>
      <point x="973" y="1084"/>
      <point x="1047" y="1035" type="curve"/>
      <point x="1091" y="1132" type="line"/>
      <point x="1004" y="1189"/>
      <point x="906" y="1218"/>
      <point x="804" y="1218" type="curve" smooth="yes"/>
      <point x="552" y="1218"/>
      <point x="333" y="1021"/>
      <point x="333" y="729" type="curve" smooth="yes"/>
      <point x="333" y="430"/>
      <point x="556" y="239"/>
    </contour>
  </outline>
</glyph>
<glyph name="cedilla" format="1">
  <advance width="700"/>
  <unicode hex="00B8"/>
  <outline>
    <contour>
      <point x="424" y="13" type="move" name="_bot"/>
    </contour>
    <contour>
      <point x="373" y="-406" type="curve" smooth="yes"/>
      <point x="516" y="-406"/>
      <point x="625" y="-329"/>
      <point x="625" y="-203" type="curve" smooth="yes"/>
      <point x="625" y="-94"/>
      <point x="551" y="-39"/>
      <point x="456" y="-39" type="curve" smooth="yes"/>
      <point x="422" y="-39"/>
      <point x="386" y="-46"/>
      <point x="349" y="-60" type="curve"/>
      <point x="349" y="-116" type="line"/>
      <point x="368" y="-113"/>
      <point x="386" y="-111"/>
      <point x="401" y="-111" type="curve" smooth="yes"/>
      <point x="482" y="-111"/>
      <point x="504" y="-156"/>
      <point x="504" y="-200" type="curve" smooth="yes"/>
      <point x="504" y="-267"/>
      <point x="442" y="-305"/>
      <point x="363" y="-305" type="curve" smooth="yes"/>
      <point x="327" y="-305"/>
      <point x="286" y="-297"/>
      <point x="245" y="-280" type="curve"/>
      <point x="212" y="-371" type="line"/>
      <point x="263" y="-394"/>
      <point x="318" y="-406"/>
    </contour>
  </outline>
</glyph>
<glyph name="uni00B9" format="1">
  <advance width="878"/>
  <unicode hex="00B9"/>
  <outline>
    <contour>
      <point x="257" y="614" type="line"/>
      <point x="735" y="614" type="line"/>
      <point x="735" y="739" type="line"/>
      <point x="575" y="739" type="line"/>
      <point x="575" y="1481" type="line"/>
      <point x="454" y="1481" type="line"/>
      <point x="419" y="1454"/>
      <point x="301" y="1394"/>
      <point x="248" y="1373" type="curve"/>
      <point x="248" y="1247" type="line"/>
      <point x="275" y="1252"/>
      <point x="383" y="1301"/>
      <point x="420" y="1322" type="curve"/>
      <point x="420" y="739" type="line"/>
      <point x="257" y="739" type="line"/>
    </contour>
  </outline>
</glyph>
<glyph name="breve" format="1">
  <advance width="886"/>
  <unicode hex="02D8"/>
  <outline>
    <contour>
      <point x="431" y="1069" type="move" name="_top"/>
    </contour>
    <contour>
      <point x="428" y="1294" type="curve" smooth="yes"/>
      <point x="575" y="1294"/>
      <point x="684" y="1379"/>
      <point x="684" y="1544" type="curve"/>
      <point x="555" y="1544" type="line"/>
      <point x="555" y="1461"/>
      <point x="492" y="1421"/>
      <point x="428" y="1421" type="curve" smooth="yes"/>
      <point x="365" y="1421"/>
      <point x="305" y="1461"/>
      <point x="305" y="1544" type="curve"/>
      <point x="173" y="1544" type="line"/>
      <point x="173" y="1378"/>
      <point x="281" y="1294"/>
    </contour>
  </outline>
</glyph>
<glyph name="uni0311" format="1">
  <advance width="812"/>
  <unicode hex="0311"/>
  <outline>
    <contour>
      <point x="419" y="1069" type="move" name="_top"/>
    </contour>
    <contour>
      <point x="159" y="1294" type="curve"/>
      <point x="291" y="1294" type="line"/>
      <point x="291" y="1378"/>
      <point x="351" y="1417"/>
      <point x="414" y="1417" type="curve" smooth="yes"/>
      <point x="478" y="1417"/>
      <point x="542" y="1378"/>
      <point x="542" y="1294" type="curve"/>
      <point x="671" y="1294" type="line"/>
      <point x="671" y="1460"/>
      <point x="562" y="1544"/>
      <point x="414" y="1544" type="curve" smooth="yes"/>
      <point x="267" y="1544"/>
      <point x="159" y="1460"/>
    </contour>
  </outline>
</glyph>
<glyph name="emdash" format="1">
  <advance width="2151"/>
  <unicode hex="2014"/>
  <outline>
    <contour>
      <point x="60" y="502" type="line"/>
      <point x="2091" y="502" type="line"/>
      <point x="2091" y="659" type="line"/>
      <point x="60" y="659" type="line"/>
    </contour>
  </outline>
</glyph>
<glyph name="quoteleft" format="1">
  <advance width="526"/>
  <unicode hex="2018"/>
  <outline>
    <contour>
      <point x="408" y="1513" type="line"/>
      <point x="262" y="1513" type="line"/>
      <point x="150" y="1022" type="line"/>
      <point x="364" y="1022" type="line"/>
    </contour>
  </outline>
</glyph>
<glyph name="quotedblbase" format="1">
  <advance width="804"/>
  <unicode hex="201E"/>
  <outline>
    <contour>
      <point x="439" y="-327" type="line"/>
      <point x="574" y="-327" type="line"/>
      <point x="688" y="157" type="line"/>
      <point x="485" y="157" type="line"/>
    </contour>
    <contour>
      <point x="108" y="-327" type="line"/>
      <point x="246" y="-327" type="line"/>
      <point x="355" y="157" type="line"/>
      <point x="156" y="157" type="line"/>
    </contour>
  </outline>
</glyph>
<glyph name="afii61289" format="1">
  <advance width="1246"/>
  <unicode hex="2113"/>
  <outline>
    <contour>
      <point x="301" y="272" type="curve" smooth="yes"/>
      <point x="301" y="67"/>
      <point x="408" y="-20"/>
      <point x="569" y="-20" type="curve" smooth="yes"/>
      <point x="807" y="-20"/>
      <point x="963" y="98"/>
      <point x="963" y="98" type="curve"/>
      <point x="937" y="237" type="line"/>
      <point x="836" y="186"/>
      <point x="746" y="153"/>
      <point x="667" y="153" type="curve" smooth="yes"/>
      <point x="581" y="153"/>
      <point x="540" y="195"/>
      <point x="540" y="285" type="curve" smooth="yes"/>
      <point x="540" y="321"/>
      <point x="547" y="365"/>
      <point x="560" y="417" type="curve" smooth="yes"/>
      <point x="613" y="635" type="line"/>
      <point x="931" y="886" type="line" smooth="yes"/>
      <point x="1135" y="1047"/>
      <point x="1236" y="1248"/>
      <point x="1236" y="1409" type="curve" smooth="yes"/>
      <point x="1236" y="1571"/>
      <point x="1134" y="1692"/>
      <point x="931" y="1692" type="curve" smooth="yes"/>
      <point x="788" y="1692"/>
      <point x="641" y="1621"/>
      <point x="580" y="1396" type="curve" smooth="yes"/>
      <point x="377" y="646" type="line"/>
      <point x="77" y="421" type="line"/>
      <point x="125" y="334" type="line"/>
      <point x="331" y="484" type="line"/>
      <point x="310" y="403"/>
      <point x="301" y="332"/>
    </contour>
    <contour>
      <point x="660" y="828" type="line"/>
      <point x="777" y="1312" type="line"/>
      <point x="809" y="1452"/>
      <point x="859" y="1513"/>
      <point x="954" y="1513" type="curve" smooth="yes"/>
      <point x="1041" y="1513"/>
      <point x="1086" y="1459"/>
      <point x="1086" y="1378" type="curve" smooth="yes"/>
      <point x="1086" y="1273"/>
      <point x="1011" y="1124"/>
      <point x="854" y="993" type="curve"/>
    </contour>
  </outline>
</glyph>
<glyph name="trademark" format="1">
  <advance width="2171"/>
  <unicode hex="2122"/>
  <outline>
    <contour>
      <point x="381" y="522" type="line"/>
      <point x="540" y="522" type="line"/>
      <point x="540" y="1330" type="line"/>
      <point x="840" y="1330" type="line"/>
      <point x="840" y="1456" type="line"/>
      <point x="82" y="1456" type="line"/>
      <point x="82" y="1330" type="line"/>
      <point x="381" y="1330" type="line"/>
    </contour>
    <contour>
      <point x="961" y="522" type="line"/>
      <point x="1104" y="522" type="line"/>
      <point x="1113" y="1231" type="line"/>
      <point x="1403" y="626" type="line"/>
      <point x="1506" y="626" type="line"/>
      <point x="1797" y="1225" type="line"/>
      <point x="1807" y="522" type="line"/>
      <point x="1949" y="522" type="line"/>
      <point x="1931" y="1456" type="line"/>
      <point x="1770" y="1456" type="line"/>
      <point x="1456" y="811" type="line"/>
      <point x="1142" y="1456" type="line"/>
      <point x="978" y="1456" type="line"/>
    </contour>
  </outline>
</glyph>
<glyph name="infinity" format="1">
  <advance width="1684"/>
  <unicode hex="221E"/>
  <outline>
    <contour>
      <point x="1461" y="663" type="curve" smooth="yes"/>
      <point x="1461" y="513"/>
      <point x="1394" y="399"/>
      <point x="1252" y="399" type="curve" smooth="yes"/>
      <point x="1137" y="399"/>
      <point x="1051" y="480"/>
      <point x="937" y="637" type="curve"/>
      <point x="1022" y="762"/>
      <point x="1124" y="873"/>
      <point x="1248" y="873" type="curve" smooth="yes"/>
      <point x="1373" y="873"/>
      <point x="1461" y="776"/>
    </contour>
    <contour>
      <point x="750" y="635" type="curve"/>
      <point x="661" y="505"/>
      <point x="554" y="399"/>
      <point x="435" y="399" type="curve" smooth="yes"/>
      <point x="300" y="399"/>
      <point x="210" y="518"/>
      <point x="210" y="637" type="curve" smooth="yes"/>
      <point x="210" y="765"/>
      <point x="293" y="873"/>
      <point x="428" y="873" type="curve" smooth="yes"/>
      <point x="558" y="873"/>
      <point x="662" y="774"/>
    </contour>
    <contour>
      <point x="843" y="744" type="curve"/>
      <point x="722" y="909"/>
      <point x="597" y="1019"/>
      <point x="429" y="1019" type="curve" smooth="yes"/>
      <point x="235" y="1019"/>
      <point x="80" y="859"/>
      <point x="80" y="658" type="curve" smooth="yes"/>
      <point x="80" y="438"/>
      <point x="210" y="250"/>
      <point x="433" y="250" type="curve" smooth="yes"/>
      <point x="597" y="250"/>
      <point x="725" y="363"/>
      <point x="843" y="523" type="curve"/>
      <point x="978" y="339"/>
      <point x="1101" y="250"/>
      <point x="1250" y="250" type="curve" smooth="yes"/>
      <point x="1446" y="250"/>
      <point x="1600" y="410"/>
      <point x="1600" y="640" type="curve" smooth="yes"/>
      <point x="1600" y="860"/>
      <point x="1475" y="1019"/>
      <point x="1252" y="1019" type="curve" smooth="yes"/>
      <point x="1081" y="1019"/>
      <point x="956" y="904"/>
    </contour>
  </outline>
</glyph>
